<?xml version="1.0" encoding="UTF-8" standalone="no"?>
<!-- Created with Inkscape (http://www.inkscape.org/) -->

<svg
   width="163.61833mm"
   height="97.631248mm"
   viewBox="0 0 163.61833 97.631248"
   version="1.1"
   id="svg1"
   inkscape:version="1.4 (e7c3feb100, 2024-10-09)"
   sodipodi:docname="logo_bg.svg"
   xmlns:inkscape="http://www.inkscape.org/namespaces/inkscape"
   xmlns:sodipodi="http://sodipodi.sourceforge.net/DTD/sodipodi-0.dtd"
   xmlns="http://www.w3.org/2000/svg"
   xmlns:svg="http://www.w3.org/2000/svg">
  <sodipodi:namedview
     id="namedview1"
     pagecolor="#ffffff"
     bordercolor="#000000"
     borderopacity="0.25"
     inkscape:showpageshadow="2"
     inkscape:pageopacity="0.0"
     inkscape:pagecheckerboard="0"
     inkscape:deskcolor="#d1d1d1"
     inkscape:document-units="mm"
     inkscape:zoom="0.66368547"
     inkscape:cx="309.63462"
     inkscape:cy="184.57538"
     inkscape:window-width="1247"
     inkscape:window-height="953"
     inkscape:window-x="50"
     inkscape:window-y="32"
     inkscape:window-maximized="0"
     inkscape:current-layer="svg1" />
  <defs
     id="defs1">
    <linearGradient
       id="SVGID_3_"
       gradientUnits="userSpaceOnUse"
       x1="112.7202"
       y1="680.35529"
       x2="731.11871"
       y2="680.35529"
       gradientTransform="matrix(0.26458333,0,0,0.26458333,-29.823833,-131.19628)">
	<stop
   offset="0.0967"
   style="stop-color:#009994"
   id="stop21" />

	<stop
   offset="0.1333"
   style="stop-color:#00999F"
   id="stop22" />

	<stop
   offset="0.1932"
   style="stop-color:#009AAA"
   id="stop23" />

	<stop
   offset="0.257"
   style="stop-color:#009AAE"
   id="stop24" />

	<stop
   offset="0.4414"
   style="stop-color:#009ABF"
   id="stop25" />

	<stop
   offset="0.6222"
   style="stop-color:#2D84C6"
   id="stop26" />

	<stop
   offset="0.8574"
   style="stop-color:#4C64AB"
   id="stop27" />

</linearGradient>
  </defs>
  <rect
     x="0"
     y="0"
     class="st5"
     width="163.61833"
     height="97.631248"
     id="rect27"
     style="fill:url(#SVGID_3_);stroke-width:0.264583" />
  <g
     id="g33"
     transform="matrix(0.26458333,0,0,0.26458333,-29.823833,-131.19628)">
	<g
   id="g27">
		<polygon
   class="st6"
   points=""
   id="polygon27"
   style="fill:#ffffff" />

		<path
   class="st6"
   d="m 210.96,744.52 c 9.48,-0.03 18.9,-0.02 28.31,-0.01 4.85,0 9.66,0.01 14.54,0.01 1.07,-0.04 2.16,-0.05 3.24,-0.05 1.98,0 3.96,0.05 5.9,0.09 6.28,0.15 12.78,0.3 18.93,-1.17 10.51,-2.6 19.55,-9.5 24.22,-18.49 V 616.1 c -12.44,-0.07 -25.07,0.04 -37.3,0.14 l -8.1,0.07 c -3.18,0.17 -6.43,0.08 -9.57,-0.01 -6.7,-0.19 -13.64,-0.39 -19.98,2.03 -9.49,3.42 -17.11,11.94 -19.43,21.72 -0.91,5.29 -0.81,10.9 -0.7,16.32 0.06,3.1 0.12,6.31 -0.01,9.47 -0.01,4.69 -0.01,9.43 0,14.16 0,3.23 0.01,6.46 0.01,9.69 -0.04,19.47 -0.07,37.4 -0.06,54.83 z m 3.2,-59.5 c -0.02,-9.8 -0.04,-19.94 0.06,-29.92 0.07,-1.62 0.03,-3.25 0,-4.84 -0.08,-3.8 -0.17,-7.73 1.09,-11.53 1.21,-3.73 3.08,-7.07 5.57,-9.92 3.45,-3.98 7.74,-6.59 13.12,-7.98 1.84,-0.56 3.75,-0.94 5.64,-1.11 0.79,-0.06 1.57,-0.08 2.34,-0.11 l 0.6,-0.02 c 3.13,-0.17 6.38,-0.13 9.53,-0.08 1.88,0.03 3.77,0.05 5.63,0.03 h 0.31 c 7.83,0.01 15.63,0 23.41,-0.01 l 18.68,-0.04 0.22,0.01 c 0.18,0 0.37,0.01 0.55,0.03 l 0.19,-0.01 c 0.37,0.01 0.7,0.12 0.97,0.3 h 0.88 l 0.02,23.23 c 0.01,0.88 0.01,1.76 0.04,2.64 0,0.19 0,0.41 -0.06,0.65 v 7.28 c 0.07,0.27 0.08,0.55 0.08,0.85 0.09,8.58 0.13,17.15 0.16,25.73 0,0.2 0,0.81 -0.45,1.26 -0.45,0.45 -1.08,0.45 -1.28,0.45 h -0.31 c -5.13,-0.05 -10.23,-0.05 -15.34,-0.06 h -1.51 c -3,0 -6,-0.01 -9,-0.03 l -6.06,-0.02 c -4.98,-0.03 -9.94,-0.07 -14.91,-0.11 l -3.41,-0.02 c 0.01,0.97 0.01,1.92 0.02,2.87 l 0.01,2.99 c 0.01,1.18 0.01,2.35 0.01,3.53 h 8.45 c 2.94,0 5.87,0.01 8.81,0.04 -0.02,-0.64 -0.03,-1.26 -0.03,-1.89 -0.01,-0.49 -0.01,-0.98 -0.02,-1.47 -0.01,-0.59 0.23,-0.95 0.43,-1.14 0.45,-0.43 1.01,-0.39 1.22,-0.38 0.06,0 0.19,0 0.32,0 2.29,-0.01 4.52,0.01 6.75,0.01 8.12,0.04 16.25,0.07 24.37,0.09 0.59,0.04 1.17,0.09 1.57,0.59 0.41,0.5 0.33,1.09 0.25,1.6 -1.67,12.35 -10.19,23.05 -21.72,27.26 -2.5,0.91 -5.18,1.53 -8.2,1.9 -0.29,0.04 -0.61,0.07 -0.92,0.1 l -0.38,0.04 c -0.32,0.03 -0.64,0.06 -0.96,0.08 -0.67,0.05 -1.34,0.1 -2.02,0.12 -1.26,0.06 -2.53,0.08 -3.81,0.08 -2.02,0 -4.04,-0.05 -6.02,-0.11 l -0.99,-0.03 c -2.85,-0.01 -5.72,0 -8.59,0.01 l -0.2,-1.14 0.01,1.14 c -3.55,0.03 -7.11,0.03 -10.66,0.01 h -1.12 c -1.2,0 -2.39,0 -3.59,-0.01 -2.57,-0.02 -5.13,-0.04 -7.69,-0.05 l -1.86,-0.01 -3.43,0.01 c -1.65,0 -3.31,0.01 -4.96,0.02 h -0.15 -0.04 -0.15 c -0.41,0 -0.82,-0.13 -1.1,-0.41 -0.42,-0.42 -0.42,-0.95 -0.41,-1.16 0.02,-3.54 0.04,-7.09 0.04,-10.63 0.03,-6.89 0.01,-13.8 0,-20.71 z"
   id="path27"
   style="fill:#ffffff" />

	</g>

	<path
   class="st6"
   d="m 251.03,656.87 c 0,0 0.01,0 0,0 2.6,0 5.19,0 7.78,0 3.04,0 6.08,-0.01 9.11,0 v -9.54 c -5.37,0.02 -10.73,0.02 -16.09,-0.01 h -0.91 c 0.02,2.71 0.03,5.41 0.03,8.12 v 1.34 c 0,0.04 0,0.07 0,0.11 0.04,-0.02 0.06,-0.02 0.08,-0.02 z"
   id="path28"
   style="fill:#ffffff" />

	<g
   id="g30">
		<path
   class="st6"
   d="m 566.97,663.8 c 0.58,-0.01 1.16,-0.01 1.74,-0.03 0.2,-0.01 0.79,-0.03 1.25,0.41 0.46,0.44 0.46,1.03 0.46,1.25 -0.03,8.7 -0.01,17.4 0,26.09 h 4.82 c 0.1,-8.19 0.08,-16.5 0.05,-24.55 -0.02,-6.56 -0.04,-13.34 0.01,-20.01 -2.62,0.02 -5.19,0.02 -7.75,0.03 h -1.33 c -0.02,0 -0.04,0 -0.06,0 0,0.01 0,0.02 0,0.03 0,2.55 0,5.1 0,7.65 0,3.05 0.01,6.09 0,9.14 0.27,0 0.54,0 0.81,-0.01 z"
   id="path29"
   style="fill:#ffffff" />

		<path
   class="st6"
   d="m 575.31,646.26 1.14,0.09 v 0 l -1.14,-0.1 z"
   id="path30"
   style="fill:#ffffff" />

	</g>

	<g
   id="g32">
		<path
   class="st6"
   d="m 524.96,736.24 c 0,2.7 0.01,5.39 0,8.09 9.17,-0.13 18.43,-0.05 27.39,0.02 12.84,0.1 26.13,0.21 39.15,-0.28 8.88,-0.59 17.22,-4.65 22.28,-10.86 1.46,-1.43 6.69,-7.95 11.31,-13.71 3.08,-3.85 6,-7.48 7.72,-9.51 0.08,-0.1 0.1,-0.11 0.09,-0.28 v -59.16 c -0.01,-0.04 -0.07,-0.26 -0.11,-0.35 -1.37,-1.62 -2.73,-3.25 -4.09,-4.88 l -2.33,-2.79 c -1.41,-1.78 -2.92,-3.51 -4.39,-5.18 -2.08,-2.38 -4.23,-4.84 -6.13,-7.47 -4.99,-8.07 -14.56,-13.32 -25.02,-13.78 -3.32,-0.03 -6.68,-0.02 -10.04,-0.01 l -52.31,0.03 v -0.04 l -4.6,0.02 c -12.42,-0.06 -25.06,0.04 -37.28,0.15 l -7.61,0.06 c -3.13,0.17 -6.39,0.08 -9.54,-0.01 -6.7,-0.19 -13.64,-0.39 -19.98,2.03 -8.12,2.93 -14.89,9.53 -18.13,17.66 l -0.7,1.76 -2.1,-2.47 c -0.44,-0.52 -0.88,-1.04 -1.32,-1.55 l -0.11,-0.13 c -1.03,-1.18 -2.1,-2.4 -2.97,-3.79 -3.84,-6.25 -10.37,-10.77 -18.38,-12.74 -4.68,-1.22 -9.66,-1.11 -14.47,-1 -2.25,0.05 -4.57,0.11 -6.85,0.03 l -14.07,0.01 c -9.26,-0.02 -18.52,0 -27.78,0.02 -12.08,0.02 -24.57,0.05 -36.87,-0.02 v 128.25 c 19.72,0.01 39.75,0.09 59.13,0.16 21.44,0.08 43.63,0.18 65.42,0.16 l 4.81,0.01 c 2.06,0 4.12,0.01 6.18,0.01 0.02,0 0.05,0 0.07,0 l 0.1,-0.19 30.69,0.01 c 3.02,-0.1 6.14,-0.03 9.15,0.04 6.28,0.15 12.78,0.3 18.93,-1.17 9.4,-2.33 17.66,-8.1 22.67,-15.84 l 2.12,-3.27 -0.01,3.9 c -0.03,2.68 -0.03,5.37 -0.02,8.06 z m -99.35,-73.42 -0.05,26.05 c -0.02,9.3 -0.03,18.6 -0.05,27.9 v 1.14 h -33.07 l 0.01,-1.15 c 0.07,-12.35 0.06,-24.95 0.05,-37.14 -0.01,-8.66 -0.01,-17.31 0.01,-25.91 -4.16,4.69 -7.37,9.61 -9.57,14.69 0.35,10.12 0.27,20.4 0.2,30.36 -0.04,5.91 -0.09,12.01 -0.04,18.01 l 0.01,1.15 H 350.3 l 0.01,-1.15 c 0.06,-6.46 0.03,-13.04 0,-19.4 -0.04,-9.52 -0.08,-19.36 0.16,-29.04 l 0.01,-0.16 c -0.01,-0.04 -0.13,-0.25 -0.21,-0.39 -0.06,-0.11 -0.12,-0.22 -0.18,-0.33 -1.6,-3.22 -3.07,-6.11 -4.95,-8.84 -0.9,-1.39 -1.97,-2.59 -3.11,-3.86 -0.32,-0.36 -0.64,-0.72 -0.96,-1.08 -0.15,13.23 -0.13,26.76 -0.11,39.86 0.01,7.76 0.02,15.52 0,23.25 v 1.14 H 308.3 l -0.01,-1.13 c -0.04,-4.79 -0.03,-9.57 -0.02,-14.36 l 0.01,-4.78 c 0.03,-7.62 0.03,-15.24 0.03,-22.86 0.01,-12.65 0.01,-25.73 0.12,-38.59 0.06,-4.95 0.08,-9.9 0.1,-14.84 0,-1.14 0.67,-1.82 1.8,-1.82 15.11,-0.06 30.22,-0.06 45.33,-0.05 9.96,0 19.93,0 29.89,-0.01 2.19,0.08 4.41,0.03 6.57,-0.02 6.11,-0.15 12.42,-0.29 18.25,2.44 9.22,4.11 15.37,13.9 15.28,24.37 -0.01,5.49 -0.02,11.02 -0.04,16.55 z m 43.55,21.52 0.03,6.62 h 2.73 c 4.95,0 9.92,-0.01 14.87,0.04 -0.02,-0.64 -0.03,-1.27 -0.03,-1.89 -0.01,-0.49 -0.01,-0.97 -0.02,-1.46 -0.01,-0.59 0.23,-0.95 0.43,-1.14 0.45,-0.43 1,-0.4 1.22,-0.38 2.27,0 4.5,0.01 6.74,0.01 8.12,0.04 16.25,0.07 24.37,0.09 0.59,0.04 1.17,0.09 1.57,0.59 0.41,0.51 0.32,1.09 0.25,1.6 -1.66,12.35 -10.19,23.05 -21.71,27.26 -5.28,1.92 -10.79,2.32 -16.25,2.32 -1.98,0 -3.96,-0.05 -5.92,-0.11 -3.25,-0.09 -6.62,-0.18 -9.86,-0.01 -5.44,0.05 -10.92,0.02 -16.22,-0.01 -5.62,-0.03 -11.43,-0.07 -17.14,0 -0.01,0 -0.01,0 -0.02,0 -0.45,0 -0.81,-0.14 -1.08,-0.41 -0.42,-0.42 -0.42,-0.95 -0.41,-1.16 0.07,-9.73 0.05,-19.62 0.04,-29.18 -0.02,-10.52 -0.04,-21.4 0.06,-32.1 0.07,-1.62 0.03,-3.26 0,-4.84 -0.08,-3.8 -0.17,-7.73 1.09,-11.52 3.04,-10.33 12.69,-17.98 23.99,-19.01 3.77,-0.27 7.57,-0.23 11.24,-0.18 2.36,0.03 4.8,0.06 7.18,0 7.08,0.01 14.13,0 21.19,-0.02 7.28,-0.01 14.57,-0.03 21.85,-0.01 1.08,0.04 1.77,0.77 1.75,1.82 -0.1,4.82 -0.03,9.74 0.04,14.49 0.03,2.4 0.07,4.81 0.08,7.22 0.01,0.88 0.01,1.76 0.04,2.64 0.01,0.27 0.03,0.89 -0.45,1.35 -0.49,0.47 -1.12,0.42 -1.4,0.4 -9.74,-0.19 -19.73,-0.15 -29.39,-0.12 -6.83,0.02 -13.88,0.05 -20.82,0 0.02,2.74 0.02,5.43 0.03,8.11 v 1.34 c 0,0.04 0,0.07 0,0.11 0.84,-0.01 1.76,0 2.64,0 1.74,0 3.47,0 5.2,0 3.22,0 6.44,-0.01 9.65,0 0,-0.3 -0.01,-0.59 -0.01,-0.88 0,-0.61 -0.01,-1.21 -0.03,-1.82 -0.01,-0.22 -0.03,-0.81 0.41,-1.27 0.45,-0.46 1.03,-0.45 1.26,-0.46 3.66,0.03 7.32,0.02 10.99,0.01 3.04,-0.01 6.09,-0.01 9.13,0 1.9,0.02 3.78,0.01 5.68,-0.01 1.7,-0.01 3.39,-0.03 5.09,-0.01 1.53,0.01 2.04,0.52 2.05,2.03 0.09,8.57 0.13,17.15 0.16,25.72 0,0.19 0.01,0.8 -0.45,1.26 -0.45,0.45 -1.07,0.44 -1.28,0.45 l -3.08,-0.02 c -4.69,-0.03 -9.39,-0.06 -14.08,-0.04 -9.68,0 -19.99,-0.06 -33.38,-0.19 -0.03,0.94 -0.02,1.86 -0.02,2.77 z m 59.32,-63.73 v -1.14 h 19.15 c 0,0 28.13,-0.05 42.4,-0.05 7.42,0 14.64,3.02 19.8,8.28 4.95,5.04 7.6,11.63 7.48,18.55 0,3.29 -0.04,10.39 -0.07,17.27 -0.04,7.58 -0.08,14.74 -0.07,16.49 0,0.07 0.03,7.36 -0.1,8.31 -0.46,3.27 -1.41,6.5 -2.84,9.6 -3.84,8.73 -10.93,15.35 -18.95,17.69 -6.65,1.93 -18.32,2.27 -25.6,2.27 -3.62,0 -6.16,-0.08 -6.46,-0.09 l -33.28,-0.01 c -0.47,-0.02 -0.81,-0.13 -1.09,-0.41 -0.42,-0.42 -0.42,-0.95 -0.41,-1.16 0.06,-30.2 0.07,-56.11 0.04,-95.6 z"
   id="path31"
   style="fill:#ffffff" />

		<path
   class="st6"
   d="m 393.65,651.27 -0.18,-0.1 -0.02,0.04 0.19,0.15 c 0.01,-0.04 0.01,-0.07 0.01,-0.09 z"
   id="path32"
   style="fill:#ffffff" />

	</g>

</g>
</svg>
