<?xml version="1.0" encoding="UTF-8" standalone="no"?>
<!-- Created with Inkscape (http://www.inkscape.org/) -->

<svg
   width="116.22484mm"
   height="35.449955mm"
   viewBox="0 0 116.22484 35.449955"
   version="1.1"
   id="svg1"
   inkscape:version="1.4 (e7c3feb100, 2024-10-09)"
   sodipodi:docname="logo_white.svg"
   xmlns:inkscape="http://www.inkscape.org/namespaces/inkscape"
   xmlns:sodipodi="http://sodipodi.sourceforge.net/DTD/sodipodi-0.dtd"
   xmlns="http://www.w3.org/2000/svg"
   xmlns:svg="http://www.w3.org/2000/svg">
  <sodipodi:namedview
     id="namedview1"
     pagecolor="#ffffff"
     bordercolor="#000000"
     borderopacity="0.25"
     inkscape:showpageshadow="2"
     inkscape:pageopacity="0.0"
     inkscape:pagecheckerboard="0"
     inkscape:deskcolor="#d1d1d1"
     inkscape:document-units="mm"
     inkscape:zoom="1.877186"
     inkscape:cx="263.69258"
     inkscape:cy="2.9299175"
     inkscape:window-width="1920"
     inkscape:window-height="953"
     inkscape:window-x="0"
     inkscape:window-y="32"
     inkscape:window-maximized="1"
     inkscape:current-layer="g7" />
  <defs
     id="defs1" />
  <g
     id="g7"
     transform="matrix(0.26458333,0,0,0.26458333,-52.844737,-25.0285)">
    <g
       id="g2"
       style="fill:#ffffff">
      <polygon
         class="st0"
         points=""
         id="polygon1"
         style="fill:#ffffff" />
      <path
         class="st0"
         d="m 199.73,228.38 c 9.87,-0.03 19.68,-0.02 29.48,-0.01 5.05,0 10.06,0.01 15.14,0.01 1.12,-0.04 2.25,-0.05 3.38,-0.05 2.06,0 4.12,0.05 6.15,0.1 6.53,0.15 13.3,0.32 19.71,-1.22 10.95,-2.71 20.35,-9.89 25.22,-19.25 V 94.68 c -12.95,-0.07 -26.1,0.04 -38.83,0.15 l -8.43,0.07 c -3.31,0.18 -6.69,0.08 -9.96,-0.01 -6.98,-0.2 -14.2,-0.41 -20.8,2.12 -9.88,3.56 -17.81,12.43 -20.23,22.61 -0.95,5.51 -0.84,11.34 -0.73,16.99 0.06,3.23 0.13,6.57 -0.01,9.86 -0.02,4.88 -0.01,9.81 0,14.74 0,3.36 0.01,6.73 0.01,10.09 -0.08,20.26 -0.11,38.94 -0.1,57.08 z m 3.33,-61.94 c -0.02,-10.21 -0.04,-20.76 0.06,-31.15 0.07,-1.68 0.03,-3.39 0,-5.04 -0.09,-3.96 -0.18,-8.05 1.14,-12 1.26,-3.88 3.21,-7.36 5.8,-10.32 3.59,-4.14 8.06,-6.86 13.65,-8.31 1.91,-0.58 3.9,-0.98 5.87,-1.15 0.83,-0.06 1.63,-0.09 2.44,-0.11 l 0.62,-0.02 c 3.26,-0.18 6.65,-0.13 9.92,-0.09 1.96,0.03 3.92,0.06 5.86,0.03 h 0.32 c 8.16,0.01 16.27,0 24.38,-0.01 l 19.45,-0.05 0.23,0.01 c 0.18,0 0.38,0.01 0.57,0.03 l 0.2,-0.01 c 0.39,0.01 0.73,0.12 1.01,0.31 h 0.92 l 0.02,24.18 c 0.01,0.91 0.01,1.83 0.05,2.75 0,0.2 0,0.43 -0.06,0.67 v 7.58 c 0.07,0.28 0.08,0.57 0.09,0.88 0.09,8.93 0.14,17.86 0.17,26.79 0,0.2 0,0.84 -0.47,1.31 -0.47,0.47 -1.13,0.46 -1.33,0.47 h -0.32 c -5.34,-0.05 -10.66,-0.06 -15.97,-0.06 h -1.57 c -3.13,0 -6.25,-0.01 -9.37,-0.03 l -6.31,-0.02 c -5.18,-0.03 -10.35,-0.07 -15.52,-0.11 l -3.55,-0.03 c 0.01,1.01 0.01,2 0.02,2.99 l 0.01,3.11 c 0.01,1.22 0.01,2.45 0.02,3.67 h 8.8 c 3.06,0 6.12,0.01 9.17,0.04 -0.02,-0.67 -0.03,-1.32 -0.04,-1.96 -0.01,-0.51 -0.01,-1.02 -0.02,-1.53 -0.01,-0.61 0.24,-0.98 0.45,-1.19 0.47,-0.45 1.05,-0.41 1.27,-0.4 0.06,0 0.2,0 0.33,0 2.38,-0.01 4.71,0.01 7.03,0.01 8.46,0.04 16.91,0.07 25.37,0.09 0.62,0.04 1.22,0.09 1.64,0.61 0.42,0.53 0.34,1.13 0.27,1.66 -1.74,12.86 -10.61,24 -22.61,28.38 -2.6,0.95 -5.4,1.59 -8.54,1.97 -0.31,0.04 -0.63,0.07 -0.96,0.1 l -0.4,0.04 c -0.34,0.03 -0.67,0.06 -1,0.09 -0.7,0.06 -1.4,0.11 -2.1,0.13 -1.31,0.06 -2.64,0.08 -3.96,0.08 -2.1,0 -4.21,-0.06 -6.27,-0.11 l -1.03,-0.03 c -2.96,-0.01 -5.95,0 -8.95,0.01 l -0.21,-1.18 0.01,1.19 c -3.7,0.03 -7.4,0.03 -11.1,0.02 h -1.16 c -1.25,0 -2.49,0 -3.74,-0.01 -2.67,-0.02 -5.34,-0.04 -8.01,-0.05 l -1.94,-0.01 -3.57,0.01 c -1.72,0 -3.44,0.01 -5.16,0.03 h -0.15 -0.04 -0.16 c -0.43,0 -0.85,-0.14 -1.14,-0.43 -0.44,-0.43 -0.43,-0.99 -0.43,-1.2 0.02,-3.69 0.04,-7.38 0.04,-11.07 -0.01,-7.17 -0.02,-14.37 -0.04,-21.56 z"
         id="path1"
         style="fill:#ffffff" />
    </g>
    <path
       class="st0"
       d="m 241.45,137.13 c 0,0 0,0 0,0 2.7,0 5.4,0 8.1,0 3.17,0 6.33,-0.01 9.49,0 v -9.93 c -5.59,0.02 -11.17,0.02 -16.75,-0.01 h -0.94 c 0.02,2.82 0.03,5.63 0.03,8.45 v 1.39 c 0,0.04 0,0.08 0,0.11 0.02,-0.01 0.05,-0.01 0.07,-0.01 z"
       id="path2"
       style="fill:#ffffff" />
    <g
       id="g4"
       style="fill:#ffffff">
      <path
         class="st1"
         d="m 570.38,144.35 c 0.6,-0.01 1.2,-0.01 1.81,-0.03 0.2,-0.01 0.83,-0.03 1.3,0.43 0.48,0.46 0.48,1.07 0.47,1.3 -0.03,9.05 -0.02,18.11 0,27.16 h 5.01 c 0.1,-8.53 0.08,-17.18 0.06,-25.56 -0.02,-6.83 -0.04,-13.88 0.01,-20.84 -2.72,0.02 -5.4,0.02 -8.07,0.03 h -1.39 c -0.02,0 -0.04,0 -0.07,0 0,0.01 0,0.02 0,0.03 0,2.66 0,5.31 0,7.97 0,3.17 0.01,6.34 0,9.52 0.31,-0.01 0.59,-0.01 0.87,-0.01 z"
         id="path3"
         style="fill:#ffffff" />
      <path
         class="st1"
         d="m 579.06,126.08 1.19,0.09 v 0 l -1.19,-0.1 c 0,0 0,0.01 0,0.01 z"
         id="path4"
         style="fill:#ffffff" />
    </g>
    <g
       id="g6"
       style="fill:#ffffff">
      <path
         class="st1"
         d="m 526.64,219.76 c 0,2.81 0.01,5.61 0,8.42 9.55,-0.13 19.18,-0.06 28.51,0.02 13.37,0.11 27.2,0.22 40.76,-0.3 9.25,-0.61 17.93,-4.84 23.19,-11.31 1.52,-1.49 6.97,-8.28 11.78,-14.27 3.21,-4 6.24,-7.79 8.03,-9.9 0.09,-0.1 0.1,-0.12 0.09,-0.29 v -61.59 c -0.01,-0.04 -0.07,-0.27 -0.12,-0.36 -1.42,-1.69 -2.84,-3.38 -4.26,-5.08 l -2.43,-2.9 c -1.47,-1.85 -3.04,-3.65 -4.57,-5.39 -2.17,-2.48 -4.41,-5.04 -6.38,-7.78 -5.19,-8.4 -15.15,-13.87 -26.05,-14.34 -3.45,-0.03 -6.95,-0.02 -10.45,-0.01 L 530.3,94.7 v -0.04 l -4.79,0.02 c -12.94,-0.07 -26.09,0.04 -38.81,0.15 l -7.92,0.07 c -3.26,0.18 -6.65,0.08 -9.93,-0.01 -6.98,-0.2 -14.2,-0.41 -20.8,2.12 -8.46,3.05 -15.5,9.92 -18.88,18.39 l -0.73,1.83 -2.19,-2.57 c -0.46,-0.54 -0.91,-1.08 -1.38,-1.62 l -0.11,-0.13 c -1.07,-1.23 -2.19,-2.5 -3.1,-3.95 -4,-6.5 -10.79,-11.21 -19.14,-13.26 -4.87,-1.27 -10.06,-1.15 -15.06,-1.04 -2.34,0.06 -4.76,0.11 -7.14,0.03 l -14.65,0.01 c -9.64,-0.02 -19.28,0 -28.93,0.02 -12.58,0.02 -25.58,0.05 -38.38,-0.02 v 133.52 c 20.54,0.01 41.39,0.09 61.57,0.17 22.32,0.09 45.42,0.18 68.11,0.17 l 5.01,0.01 c 2.14,0 4.28,0.01 6.44,0.01 0.02,0 0.05,0 0.07,0 l 0.11,-0.2 31.96,0.01 c 3.14,-0.11 6.39,-0.03 9.52,0.04 6.53,0.15 13.3,0.32 19.71,-1.22 9.78,-2.42 18.39,-8.43 23.6,-16.49 l 2.2,-3.41 -0.01,4.06 c -0.02,2.79 -0.02,5.59 -0.01,8.39 z m -103.43,-76.44 -0.05,27.12 c -0.02,9.68 -0.03,19.36 -0.06,29.04 v 1.19 h -34.43 l 0.01,-1.2 c 0.07,-12.86 0.06,-25.98 0.05,-38.67 -0.01,-9.02 -0.02,-18.02 0.01,-26.98 -4.33,4.88 -7.67,10.01 -9.96,15.29 0.36,10.53 0.28,21.24 0.21,31.6 -0.04,6.15 -0.09,12.51 -0.04,18.75 l 0.01,1.2 H 344.8 l 0.01,-1.2 c 0.06,-6.73 0.03,-13.58 0,-20.2 -0.04,-9.91 -0.08,-20.16 0.16,-30.23 l 0.02,-0.16 c -0.01,-0.04 -0.13,-0.26 -0.22,-0.41 -0.07,-0.12 -0.13,-0.23 -0.19,-0.35 -1.66,-3.35 -3.2,-6.36 -5.15,-9.2 -0.94,-1.44 -2.05,-2.69 -3.23,-4.02 -0.33,-0.37 -0.67,-0.75 -1,-1.13 -0.16,13.78 -0.14,27.86 -0.12,41.5 0.01,8.08 0.02,16.16 0,24.21 v 1.19 h -34 l -0.01,-1.18 c -0.04,-4.98 -0.03,-9.97 -0.02,-14.95 l 0.01,-4.98 c 0.03,-7.93 0.03,-15.87 0.03,-23.8 0.01,-13.17 0.01,-26.79 0.13,-40.18 0.06,-5.15 0.08,-10.3 0.11,-15.45 0,-1.19 0.7,-1.9 1.87,-1.9 15.73,-0.06 31.46,-0.06 47.19,-0.06 10.37,0 20.75,0 31.12,-0.01 2.27,0.08 4.59,0.03 6.84,-0.02 6.36,-0.15 12.94,-0.3 19,2.54 9.6,4.27 16,14.47 15.91,25.37 -0.02,5.77 -0.04,11.53 -0.05,17.28 z m 45.34,22.41 0.03,6.89 h 2.84 c 5.16,0 10.32,-0.01 15.49,0.04 -0.02,-0.67 -0.03,-1.32 -0.04,-1.97 -0.01,-0.51 -0.01,-1.01 -0.02,-1.52 -0.01,-0.61 0.24,-0.98 0.45,-1.19 0.47,-0.45 1.04,-0.41 1.27,-0.4 2.37,0 4.69,0.01 7.01,0.02 8.46,0.04 16.91,0.07 25.37,0.09 0.62,0.04 1.22,0.09 1.64,0.62 0.42,0.53 0.34,1.13 0.26,1.67 -1.73,12.86 -10.61,24 -22.61,28.38 -5.5,2 -11.23,2.42 -16.92,2.42 -2.06,0 -4.12,-0.06 -6.16,-0.11 -3.39,-0.09 -6.89,-0.18 -10.27,-0.02 -5.66,0.06 -11.37,0.02 -16.89,-0.01 -5.85,-0.03 -11.9,-0.07 -17.84,0 -0.01,0 -0.01,0 -0.02,0 -0.46,0 -0.84,-0.14 -1.12,-0.43 -0.44,-0.43 -0.43,-0.99 -0.43,-1.2 0.07,-10.13 0.05,-20.42 0.04,-30.38 -0.02,-10.95 -0.04,-22.28 0.06,-33.42 0.07,-1.68 0.03,-3.39 0,-5.04 -0.09,-3.96 -0.18,-8.04 1.13,-12 3.17,-10.75 13.21,-18.72 24.97,-19.79 3.92,-0.28 7.88,-0.24 11.7,-0.19 2.46,0.03 5,0.06 7.48,0 7.37,0.01 14.72,0 22.06,-0.02 7.58,-0.01 15.17,-0.03 22.75,-0.02 1.13,0.04 1.84,0.8 1.82,1.9 -0.1,5.02 -0.03,10.14 0.04,15.08 0.04,2.5 0.07,5.01 0.09,7.51 0.01,0.92 0.01,1.83 0.05,2.75 0.01,0.28 0.03,0.93 -0.47,1.4 -0.51,0.49 -1.17,0.44 -1.46,0.41 -10.14,-0.2 -20.54,-0.16 -30.6,-0.12 -7.11,0.03 -14.45,0.05 -21.68,0 0.02,2.86 0.02,5.65 0.03,8.45 v 1.39 c 0,0.04 0,0.08 0,0.11 0.87,-0.01 1.83,0 2.75,0 1.81,0 3.61,0 5.42,0 3.35,0 6.7,-0.01 10.05,0 0,-0.31 -0.01,-0.61 -0.01,-0.91 0,-0.63 -0.01,-1.26 -0.04,-1.89 -0.01,-0.23 -0.03,-0.84 0.43,-1.32 0.47,-0.48 1.07,-0.47 1.31,-0.48 3.81,0.03 7.63,0.02 11.44,0.01 3.17,-0.01 6.34,-0.01 9.51,0 1.98,0.02 3.94,0.01 5.91,-0.01 1.77,-0.01 3.53,-0.03 5.3,-0.01 1.59,0.01 2.12,0.54 2.13,2.11 0.09,8.93 0.14,17.85 0.17,26.78 0,0.2 0.01,0.84 -0.46,1.31 -0.47,0.47 -1.11,0.46 -1.33,0.47 l -3.21,-0.02 c -4.89,-0.03 -9.78,-0.07 -14.66,-0.04 -10.07,0 -20.81,-0.06 -34.75,-0.19 -0.02,0.98 -0.02,1.94 -0.01,2.89 z m 61.76,-66.35 v -1.19 h 19.94 c 0,0 29.28,-0.05 44.15,-0.05 7.72,0 15.24,3.14 20.62,8.62 5.15,5.25 7.92,12.11 7.78,19.31 0,3.43 -0.04,10.82 -0.08,17.98 -0.04,7.89 -0.08,15.34 -0.07,17.17 0,0.07 0.04,7.66 -0.1,8.65 -0.48,3.4 -1.47,6.76 -2.95,9.99 -4,9.09 -11.38,15.98 -19.73,18.41 -6.92,2.01 -19.07,2.36 -26.65,2.36 -3.77,0 -6.41,-0.09 -6.72,-0.1 l -34.65,-0.01 c -0.49,-0.02 -0.84,-0.14 -1.13,-0.43 -0.44,-0.43 -0.43,-0.99 -0.43,-1.2 0.04,-31.42 0.05,-58.4 0.02,-99.51 z"
         id="path5"
         style="fill:#ffffff" />
      <path
         class="st1"
         d="m 389.93,131.29 -0.19,-0.1 -0.02,0.04 0.2,0.15 c 0.01,-0.03 0.01,-0.06 0.01,-0.09 z"
         id="path6"
         style="fill:#ffffff" />
    </g>
  </g>
</svg>
