<?xml version="1.0" encoding="UTF-8" standalone="no"?>
<!-- Created with Inkscape (http://www.inkscape.org/) -->

<svg
   width="64.098976mm"
   height="35.652607mm"
   viewBox="0 0 64.098976 35.652607"
   version="1.1"
   id="svg1"
   inkscape:version="1.4 (e7c3feb100, 2024-10-09)"
   sodipodi:docname="logo_mini.svg"
   xmlns:inkscape="http://www.inkscape.org/namespaces/inkscape"
   xmlns:sodipodi="http://sodipodi.sourceforge.net/DTD/sodipodi-0.dtd"
   xmlns="http://www.w3.org/2000/svg"
   xmlns:svg="http://www.w3.org/2000/svg">
  <sodipodi:namedview
     id="namedview1"
     pagecolor="#ffffff"
     bordercolor="#000000"
     borderopacity="0.25"
     inkscape:showpageshadow="2"
     inkscape:pageopacity="0.0"
     inkscape:pagecheckerboard="0"
     inkscape:deskcolor="#d1d1d1"
     inkscape:document-units="mm"
     inkscape:zoom="0.66368547"
     inkscape:cx="216.21688"
     inkscape:cy="217.72362"
     inkscape:window-width="1247"
     inkscape:window-height="953"
     inkscape:window-x="50"
     inkscape:window-y="32"
     inkscape:window-maximized="0"
     inkscape:current-layer="svg1" />
  <defs
     id="defs1">
    <linearGradient
       id="SVGID_1_"
       gradientUnits="userSpaceOnUse"
       x1="290.79681"
       y1="358.08191"
       x2="533.07892"
       y2="358.08191">
			<stop
   offset="0.0967"
   style="stop-color:#009994"
   id="stop7" />

			<stop
   offset="0.1333"
   style="stop-color:#00999F"
   id="stop8" />

			<stop
   offset="0.1932"
   style="stop-color:#009AAA"
   id="stop9" />

			<stop
   offset="0.257"
   style="stop-color:#009AAE"
   id="stop10" />

			<stop
   offset="0.4414"
   style="stop-color:#009ABF"
   id="stop11" />

			<stop
   offset="0.6222"
   style="stop-color:#2D84C6"
   id="stop12" />

			<stop
   offset="0.8574"
   style="stop-color:#4C64AB"
   id="stop13" />

		</linearGradient>
    <linearGradient
       id="SVGID_2_"
       gradientUnits="userSpaceOnUse"
       x1="482.96689"
       y1="327.77921"
       x2="483.16891"
       y2="327.77921">
			<stop
   offset="0.0967"
   style="stop-color:#009994"
   id="stop14" />

			<stop
   offset="0.1333"
   style="stop-color:#00999F"
   id="stop15" />

			<stop
   offset="0.1932"
   style="stop-color:#009AAA"
   id="stop16" />

			<stop
   offset="0.257"
   style="stop-color:#009AAE"
   id="stop17" />

			<stop
   offset="0.4414"
   style="stop-color:#009ABF"
   id="stop18" />

			<stop
   offset="0.6222"
   style="stop-color:#2D84C6"
   id="stop19" />

			<stop
   offset="0.8574"
   style="stop-color:#4C64AB"
   id="stop20" />

		</linearGradient>
  </defs>
  <g
     id="g21"
     transform="matrix(0.26458333,0,0,0.26458333,-76.945485,-76.911724)">
	<path
   class="st2"
   d="M 332.46,334.13 H 351 v -11 h -18.59 c 0.02,2.8 0.02,5.5 0.03,8.2 l 0.01,2.19 c 0,0.2 0,0.45 0.01,0.61 z"
   id="path7"
   style="fill:#009aa8" />

	<g
   id="g20">
		<linearGradient
   id="linearGradient21"
   gradientUnits="userSpaceOnUse"
   x1="290.79681"
   y1="358.08191"
   x2="533.07892"
   y2="358.08191">
			<stop
   offset="0.0967"
   style="stop-color:#009994"
   id="stop1" />

			<stop
   offset="0.1333"
   style="stop-color:#00999F"
   id="stop2" />

			<stop
   offset="0.1932"
   style="stop-color:#009AAA"
   id="stop3" />

			<stop
   offset="0.257"
   style="stop-color:#009AAE"
   id="stop4" />

			<stop
   offset="0.4414"
   style="stop-color:#009ABF"
   id="stop5" />

			<stop
   offset="0.6222"
   style="stop-color:#2D84C6"
   id="stop6" />

			<stop
   offset="0.8574"
   style="stop-color:#4C64AB"
   id="stop21" />

		</linearGradient>

		<path
   class="st3"
   d="m 533.08,327.01 c 0.01,-0.26 -0.03,-0.37 -0.19,-0.56 -1.65,-1.96 -3.29,-3.92 -4.93,-5.89 -3.1,-3.72 -6.31,-7.57 -9.55,-11.28 -1.16,-1.32 -2.27,-2.59 -3.18,-4.03 -4.05,-6.59 -10.93,-11.36 -19.38,-13.44 -4.93,-1.29 -10.13,-1.17 -15.17,-1.05 -2.33,0.05 -4.74,0.11 -7.11,0.03 H 458.9 c -9.66,-0.02 -19.32,0 -28.98,0.02 -12.95,0.02 -26.35,0.05 -39.52,-0.03 -13.05,-0.07 -26.32,0.04 -39.15,0.15 l -8.27,0.07 c -3.26,0.18 -6.65,0.08 -9.92,-0.01 -7.02,-0.2 -14.28,-0.41 -20.95,2.14 -10.15,3.66 -17.99,12.43 -20.47,22.89 -0.96,5.57 -0.85,11.42 -0.74,17.08 0.06,3.23 0.13,6.57 -0.01,9.84 -0.02,4.82 -0.01,9.66 0,14.51 0.01,3.45 0.01,6.89 0.01,10.34 -0.07,20.57 -0.09,39.37 -0.08,57.47 10.02,-0.03 19.91,-0.02 29.8,-0.01 5.07,0.01 10.12,0.01 15.21,0.01 3.14,-0.11 6.38,-0.03 9.51,0.04 6.57,0.16 13.36,0.32 19.81,-1.23 10.3,-2.55 19.49,-9.22 24.58,-17.84 l 1.48,-2.5 v 21.36 c 20.71,0.01 41.75,0.09 62.1,0.17 22.28,0.09 45.29,0.16 67.97,0.17 l 4.98,0.01 c 2.16,0 4.32,0 6.47,0 0.05,0 0.1,0 0.16,0 0,-0.05 0,-0.1 0,-0.15 0,-7.42 0.02,-14.81 0.05,-22.21 0.06,-12.96 0.05,-25.93 0.04,-38.89 -0.01,-10.5 -0.01,-21.01 0.01,-31.51 -0.01,-1.87 0.02,-3.77 0.09,-5.67 z m -200.67,35.32 0.01,2.39 c 0.01,1.63 0.02,3.26 0.02,4.9 h 9.21 c 3.19,0 6.38,0.01 9.57,0.05 -0.03,-0.83 -0.04,-1.6 -0.05,-2.37 -0.01,-0.51 -0.01,-1.02 -0.02,-1.52 -0.01,-0.47 0.17,-0.74 0.33,-0.89 0.34,-0.32 0.76,-0.3 0.97,-0.29 0.12,0 0.23,0 0.34,0 2.4,0 4.72,0 7.05,0.01 8.46,0.04 16.91,0.07 25.37,0.09 0.55,0.04 1.02,0.08 1.33,0.47 0.31,0.39 0.25,0.84 0.18,1.36 -1.72,12.72 -10.49,23.73 -22.35,28.06 -2.57,0.93 -5.33,1.57 -8.45,1.95 -0.29,0.04 -0.6,0.07 -0.91,0.1 l -0.43,0.04 c -0.34,0.03 -0.67,0.06 -1,0.09 -0.69,0.05 -1.38,0.11 -2.08,0.13 -1.31,0.06 -2.63,0.08 -3.96,0.08 -2.13,0 -4.26,-0.06 -6.34,-0.11 l -0.94,-0.02 c -2.98,-0.01 -5.97,0 -8.96,0.01 l -0.2,-0.79 0.01,0.79 c -3.71,0.03 -7.41,0.03 -11.12,0.01 h -0.61 c -1.42,0 -2.85,0 -4.27,0 -2.66,-0.02 -5.32,-0.04 -7.98,-0.05 l -1.99,-0.01 -2.82,0.01 c -1.97,0 -3.94,0.01 -5.9,0.03 h -0.1 -0.09 -0.16 c -0.4,0 -0.65,-0.1 -0.86,-0.31 -0.32,-0.32 -0.31,-0.72 -0.31,-0.92 0.02,-3.69 0.04,-7.38 0.04,-11.07 0.03,-7.22 0.01,-14.43 0,-21.64 -0.02,-10.19 -0.04,-20.72 0.06,-31.09 0.07,-1.68 0.03,-3.4 0,-5.06 -0.09,-3.92 -0.18,-7.98 1.12,-11.86 1.24,-3.83 3.17,-7.26 5.72,-10.19 3.53,-4.07 7.94,-6.75 13.45,-8.19 1.91,-0.58 3.87,-0.97 5.81,-1.14 0.81,-0.06 1.61,-0.09 2.41,-0.11 l 0.62,-0.02 c 3.26,-0.18 6.63,-0.13 9.89,-0.09 1.97,0.03 3.94,0.05 5.89,0.03 h 0.32 c 8.02,0.01 15.99,0 23.96,-0.01 l 19.86,-0.05 h 0.22 c 0.17,0 0.36,0.01 0.53,0.03 l 0.25,-0.01 c 0.35,0.01 0.65,0.12 0.88,0.31 h 0.65 l 0.02,23.79 c 0,0.92 0.01,1.84 0.05,2.76 0,0.18 0,0.39 -0.06,0.6 v 7.69 c 0.07,0.23 0.08,0.49 0.09,0.84 0.09,8.92 0.14,17.85 0.17,26.78 0,0.29 -0.03,0.71 -0.35,1.03 -0.35,0.36 -0.82,0.36 -1.05,0.35 h -0.33 c -5.34,-0.05 -10.65,-0.06 -15.97,-0.06 h -1.58 c -3,0 -6.02,-0.01 -9.03,-0.02 l -6.64,-0.02 c -5.18,-0.03 -10.35,-0.07 -15.52,-0.11 l -3.95,-0.03 c -0.03,1.12 -0.02,2.19 -0.02,3.27 z M 516.05,340.08 516,365.97 c -0.02,10.01 -0.03,20.01 -0.06,30.02 v 0.79 H 482.3 v -0.8 c 0.07,-12.84 0.06,-25.94 0.05,-38.62 -0.01,-9.38 -0.02,-18.75 0.01,-28.08 -0.02,0.02 -0.04,0.04 -0.06,0.07 -4.69,5.14 -8.28,10.58 -10.71,16.19 0.36,10.55 0.29,21.29 0.21,31.68 -0.04,6.15 -0.09,12.51 -0.04,18.75 l 0.01,0.8 h -33.36 l 0.01,-0.8 c 0.06,-6.71 0.03,-13.55 0,-20.16 -0.04,-9.92 -0.08,-20.18 0.16,-30.27 0.04,-0.26 -0.11,-0.52 -0.25,-0.77 -0.06,-0.11 -0.12,-0.22 -0.18,-0.33 -1.67,-3.37 -3.22,-6.39 -5.18,-9.25 -0.95,-1.46 -2.12,-2.78 -3.26,-4.06 -0.56,-0.63 -1.13,-1.27 -1.68,-1.93 -0.17,14.14 -0.15,28.63 -0.13,42.65 0.01,8.05 0.02,16.1 0,24.12 v 0.79 h -33.2 l -0.01,-0.79 c -0.04,-5.07 -0.03,-10.14 -0.02,-15.21 l 0.01,-4.72 c 0.03,-7.87 0.03,-15.74 0.03,-23.6 0,-13.23 0.01,-26.91 0.13,-40.37 0.06,-5.15 0.08,-10.3 0.1,-15.45 0.01,-1.24 0.81,-1.5 1.47,-1.5 15.72,-0.06 31.44,-0.06 47.15,-0.05 10.38,0 20.77,0 31.16,-0.01 2.27,0.09 4.6,0.03 6.84,-0.02 6.31,-0.15 12.84,-0.3 18.82,2.5 9.47,4.21 15.77,14.27 15.68,25.01 0.02,5.85 0,11.69 -0.01,17.53 z"
   id="path13"
   style="fill:url(#SVGID_1_)" />

		<linearGradient
   id="linearGradient28"
   gradientUnits="userSpaceOnUse"
   x1="482.96689"
   y1="327.77921"
   x2="483.16891"
   y2="327.77921">
			<stop
   offset="0.0967"
   style="stop-color:#009994"
   id="stop22" />

			<stop
   offset="0.1333"
   style="stop-color:#00999F"
   id="stop23" />

			<stop
   offset="0.1932"
   style="stop-color:#009AAA"
   id="stop24" />

			<stop
   offset="0.257"
   style="stop-color:#009AAE"
   id="stop25" />

			<stop
   offset="0.4414"
   style="stop-color:#009ABF"
   id="stop26" />

			<stop
   offset="0.6222"
   style="stop-color:#2D84C6"
   id="stop27" />

			<stop
   offset="0.8574"
   style="stop-color:#4C64AB"
   id="stop28" />

		</linearGradient>

		<path
   class="st4"
   d="m 483.17,327.75 -0.18,-0.08 -0.03,0.06 0.2,0.15 c 0.01,-0.04 0.01,-0.08 0.01,-0.13 z"
   id="path20"
   style="fill:url(#SVGID_2_)" />

	</g>

</g>
</svg>
